#!OML:ASF F:\VICON\USERDATA\INSTALL\rory3\rory3.ASF
:FULLY-SPECIFIED
:DEGREES
83
root -0.395434 18.1137 15.8469 3.00807 0.500765 -5.23828
lowerback 12.4742 0.887761 5.05709
upperback 1.10327 1.86256 -0.22593
thorax -5.66756 0.790453 -3.41063
lowerneck -4.74765 -0.669572 -1.01369
upperneck -7.09176 -0.769595 1.80879
head -1.38689 -0.379318 0.725216
rclavicle -2.56432e-014 -1.55052e-014
rhumerus -37.6566 20.6176 -90.3857
rradius 97.1342
rwrist 0.433912
rhand -41.6789 35.0165
rfingers 7.12502
rthumb -14.5858 5.54938
lclavicle -2.56432e-014 -1.55052e-014
lhumerus -56.1938 -6.08175 90.6953
lradius 106.462
lwrist 31.7904
lhand -41.2231 14.8646
lfingers 7.12502
lthumb -14.1466 44.363
rfemur 16.5635 6.35287 33.5472
rtibia 57.4823
rfoot 31.8109 -2.85451
rtoes 19.5288
lfemur -29.8923 -1.6444 -15.7453
ltibia 22.3013
lfoot 8.6701 -3.70658
ltoes -19.1746
84
root -0.401139 18.0132 16.389 2.66388 0.686099 -4.47987
lowerback 12.7095 0.797497 4.07506
upperback 1.16923 1.60396 -0.423556
thorax -5.77359 0.68319 -3.02703
lowerneck -4.57276 -0.56984 -0.840847
upperneck -7.03373 -0.649615 1.69045
head -1.39995 -0.322892 0.660312
rclavicle 4.22417e-014 -2.38542e-015
rhumerus -38.3832 20.177 -90.5112
rradius 95.4254
rwrist -0.0518259
rhand -41.6532 35.2942
rfingers 7.12502
rthumb -14.561 5.82523
lclavicle 4.22417e-014 -2.38542e-015
lhumerus -54.796 -6.67842 90.7942
lradius 106.787
lwrist 32.4602
lhand -40.7688 14.8705
lfingers 7.12502
lthumb -13.7088 44.399
rfemur 14.8004 4.96538 31.7898
rtibia 62.3874
rfoot 31.5721 -3.98382
rtoes 21.8696
lfemur -28.9525 -0.409008 -17.4728
ltibia 23.1071
lfoot 7.63043 -6.99229
ltoes -15.5506
85
root -0.410438 17.9212 16.9338 2.21045 0.805742 -3.97061
lowerback 13.0716 0.719225 3.21156
upperback 1.23067 1.38457 -0.510606
thorax -5.9456 0.592564 -2.60126
lowerneck -4.53474 -0.483064 -0.902481
upperneck -6.64532 -0.528797 1.87587
head -1.28536 -0.262593 0.726296
rclavicle 9.64106e-015 1.19271e-015
rhumerus -39.0253 19.8023 -90.5385
rradius 93.6275
rwrist -0.374422
rhand -41.9181 36.4696
rfingers 7.12502
rthumb -14.8162 7.01931
lclavicle 9.64106e-015 1.19271e-015
lhumerus -53.3001 -7.31368 91.0075
lradius 107.124
lwrist 33.0621
lhand -40.6866 15.1127
lfingers 7.12502
lthumb -13.6296 44.6465
rfemur 13.1726 3.59244 30.2541
rtibia 67.0488
rfoot 31.17 -5.74067
rtoes 21.6713
lfemur -28.0807 0.693302 -18.7295
ltibia 25.0623
lfoot 4.9725 -9.48265
ltoes -10.5857
86
root -0.417015 17.8117 17.4673 1.68336 1.48321 -3.93955
lowerback 13.4705 0.38631 2.99845
upperback 1.35233 0.925745 -0.484427
thorax -6.07277 0.372583 -2.37763
lowerneck -4.69986 -0.412379 -0.993929
upperneck -6.10453 -0.428965 2.10865
head -1.08999 -0.210654 0.81039
rclavicle 6.95746e-016 9.54166e-015
rhumerus -39.5462 19.4269 -90.6204
rradius 91.7328
rwrist -0.423407
rhand -42.1993 37.1372
rfingers 7.12502
rthumb -15.0872 7.70706
lclavicle 6.95746e-016 9.54166e-015
lhumerus -51.4924 -8.05286 91.1878
lradius 107.448
lwrist 33.7237
lhand -40.6354 15.7258
lfingers 7.12502
lthumb -13.5802 45.2629
rfemur 11.4871 1.69283 29.2916
rtibia 71.5932
rfoot 29.9587 -7.77151
rtoes 22.3828
lfemur -27.1886 0.739879 -19.1574
ltibia 27.9428
lfoot 1.44182 -10.0566
ltoes -6.76875
87
root -0.413978 17.6797 18.0097 1.2243 4.00274 -3.7385
lowerback 13.4191 -0.598151 3.05064
upperback 1.57057 -0.372319 -0.4811
thorax -5.89233 -0.257374 -2.16481
lowerneck -4.93672 -0.34469 -1.15048
upperneck -5.68607 -0.329272 2.35617
head -0.922482 -0.15683 0.911241
rclavicle -2.5842e-015 -1.15295e-014
rhumerus -40.0708 18.76 -90.628
rradius 89.9244
rwrist 0.202277
rhand -42.4415 36.4784
rfingers 7.12502
rthumb -15.3204 7.06586
lclavicle -2.5842e-015 -1.15295e-014
lhumerus -49.5469 -8.87798 91.4091
lradius 107.904
lwrist 34.201
lhand -39.8516 14.0222
lfingers 7.12502
lthumb -12.8247 43.6082
rfemur 9.93348 -2.04563 27.9594
rtibia 75.8443
rfoot 28.0734 -9.52451
rtoes 22.0678
lfemur -26.3821 -1.2256 -19.6378
ltibia 31.273
lfoot -1.86321 -10.1299
ltoes -0.608957
88
root -0.406331 17.6398 18.5295 1.27265 2.63335 -3.37699
lowerback 13.7707 -0.194053 2.36819
upperback 1.60351 0.0619588 -0.604532
thorax -6.02623 -0.0321078 -1.98976
lowerneck -5.21964 -0.334249 -1.40448
upperneck -5.5976 -0.292433 2.71528
head -0.849353 -0.133621 1.06568
rclavicle 1.55052e-014 1.43125e-014
rhumerus -40.5325 17.6914 -90.5448
rradius 88.4298
rwrist 1.07362
rhand -43.0159 35.7556
rfingers 7.12502
rthumb -15.8736 6.38629
lclavicle 1.55052e-014 1.43125e-014
lhumerus -47.1707 -9.81708 91.5329
lradius 108.371
lwrist 34.604
lhand -38.1763 11.8954
lfingers 7.12502
lthumb -11.2093 41.5759
rfemur 7.29552 -1.85419 26.2392
rtibia 80.1939
rfoot 27.8508 -10.5921
rtoes 21.108
lfemur -26.353 -0.447072 -20.3277
ltibia 34.4764
lfoot -4.40728 -9.00408
ltoes 0.732365
89
root -0.395252 17.576 19.0485 0.876656 1.93136 -2.62429
lowerback 14.2285 -0.0189751 1.41762
upperback 1.91556 0.139578 -0.846577
thorax -5.94594 0.0287215 -1.72302
lowerneck -5.52533 -0.341492 -1.56234
upperneck -5.69443 -0.282183 2.97387
head -0.82939 -0.125158 1.17374
rclavicle -1.2424e-014 7.95139e-015
rhumerus -40.8878 16.5088 -90.4572
rradius 87.0666
rwrist 1.88972
rhand -43.3023 35.7326
rfingers 7.12502
rthumb -16.1495 6.38538
lclavicle -1.2424e-014 7.95139e-015
lhumerus -44.4524 -10.8051 91.5197
lradius 108.84
lwrist 34.7661
lhand -38.5378 12.3816
lfingers 7.12502
lthumb -11.5579 42.0429
rfemur 5.22642 -2.16322 24.3293
rtibia 84.339
rfoot 27.4805 -11.5924
rtoes 21.9384
lfemur -25.338 -0.509954 -21.2941
ltibia 37.0864
lfoot -6.9778 -7.26635
ltoes -1.7453
90
root -0.402269 17.5024 19.5203 0.297418 2.80313 -1.45981
lowerback 15.4186 -0.295855 0.199491
upperback 2.12004 -0.434665 -1.14707
thorax -6.4006 -0.228125 -1.24031
lowerneck -5.52683 -0.372942 -1.89611
upperneck -6.10593 -0.284522 3.41754
head -0.957683 -0.124184 1.37423
rclavicle 2.08724e-015 1.43125e-014
rhumerus -41.4789 14.9783 -90.2724
rradius 85.8072
rwrist 2.71379
rhand -43.1522 35.7696
rfingers 7.12502
rthumb -16.005 6.41072
lclavicle 2.08724e-015 1.43125e-014
lhumerus -41.6389 -11.9739 91.4581
lradius 109.101
lwrist 34.5358
lhand -39.9851 13.5203
lfingers 7.12502
lthumb -12.9535 43.0982
rfemur 3.28684 -3.9682 21.9894
rtibia 88.3773
rfoot 26.9469 -11.9973
rtoes 23.6375
lfemur -23.8694 -1.86865 -22.6535
ltibia 38.9242
lfoot -9.29923 -6.15367
ltoes -3.53954
91
root -0.418154 17.4442 19.9913 0.41658 2.7462 0.385966
lowerback 15.8489 -0.0983126 -1.92943
upperback 2.20096 -0.571832 -1.62083
thorax -6.53846 -0.248574 -0.507849
lowerneck -5.07711 -0.486053 -2.19016
upperneck -7.20508 -0.381137 3.91476
head -1.3778 -0.180034 1.59442
rclavicle -5.26779e-015 -1.74931e-014
rhumerus -42.2148 13.3241 -89.953
rradius 84.7719
rwrist 3.54416
rhand -42.9795 36.0172
rfingers 7.12502
rthumb -15.8386 6.64505
lclavicle -5.26779e-015 -1.74931e-014
lhumerus -38.6106 -13.2274 91.1542
lradius 109.342
lwrist 34.3981
lhand -40.3431 14.3577
lfingers 7.12502
lthumb -13.2985 43.9134
rfemur 0.00159077 -4.68824 19.0232
rtibia 92.5031
rfoot 26.9513 -11.6264
rtoes 24.5296
lfemur -22.754 -2.43757 -24.6546
ltibia 40.1646
lfoot -11.3752 -5.57144
ltoes -3.70223
92
root -0.43439 17.4079 20.4582 0.881533 1.47825 1.83219
lowerback 15.9461 0.520999 -3.80457
upperback 2.12423 -0.114273 -2.02568
thorax -6.67337 0.0166841 0.0239714
lowerneck -4.65741 -0.659299 -2.38116
upperneck -8.29137 -0.565526 4.2485
head -1.79276 -0.281782 1.74984
rclavicle -3.8763e-015 0
rhumerus -43.1457 11.6819 -89.6279
rradius 83.7722
rwrist 4.48833
rhand -43.6381 36.2938
rfingers 7.12502
rthumb -16.4728 6.97315
lclavicle -3.8763e-015 0
lhumerus -35.488 -14.6906 90.7323
lradius 109.512
lwrist 34.2644
lhand -40.3216 14.6798
lfingers 7.12502
lthumb -13.2778 44.2368
rfemur -4.50076 -4.03544 16.8355
rtibia 96.3063
rfoot 27.5886 -10.4623
rtoes 25.1726
lfemur -21.7037 -1.91948 -26.1933
ltibia 40.8612
lfoot -13.3238 -4.74811
ltoes -6.05741
